<svg xmlns="http://www.w3.org/2000/svg" viewBox="0 0 24 24" enable-background="new 0 0 24 24" xml:space="preserve" height="36" width="36"><circle fill="#EEEEEE" cx="12" cy="12" r="10"></circle><path fill="#0C9D58" d="M15.939,14.067c0,0.186-0.153,0.338-0.34,0.338H8.401c-0.187,0-0.34-0.152-0.34-0.338V7.004  c0-0.186,0.153-0.338,0.34-0.338h7.199c0.187,0,0.34,0.152,0.34,0.338L15.939,14.067L15.939,14.067z"></path><path opacity="0.2" fill="#004D40" enable-background="new    " d="M15.939,8.482l-2.698-0.347l2.698,0.724V8.482z"></path><path opacity="0.2" fill="#004D40" enable-background="new    " d="M12.13,7.035L8.044,8.859l4.515-1.644V7.211  C12.481,7.041,12.287,6.962,12.13,7.035z"></path><path opacity="0.2" fill="#FFFFFF" enable-background="new    " d="M15.599,6.667H8.401c-0.187,0-0.34,0.152-0.34,0.338V7.08  c0-0.186,0.153-0.338,0.34-0.338h7.199c0.187,0,0.34,0.152,0.34,0.338V7.004C15.939,6.819,15.786,6.667,15.599,6.667z"></path><path fill="#EA4335" d="M9.807,13.85c-0.049,0.181,0.048,0.366,0.216,0.411l6.668,1.793c0.167,0.045,0.344-0.067,0.392-0.248  l1.571-5.862c0.049-0.181-0.048-0.366-0.216-0.411l-6.668-1.793c-0.167-0.045-0.344,0.067-0.392,0.248L9.807,13.85z"></path><path opacity="0.2" fill="#3E2723" enable-background="new    " d="M17.152,12.036l0.351,2.13l-0.351,1.309V12.036z"></path><path opacity="0.2" fill="#3E2723" enable-background="new    " d="M13.273,8.222l0.314,0.084l0.195,1.315L13.273,8.222z"></path><path opacity="0.2" fill="#FFFFFF" enable-background="new    " d="M18.438,9.533l-6.667-1.793  c-0.167-0.045-0.344,0.067-0.392,0.248L9.808,13.85c-0.003,0.01-0.003,0.02-0.005,0.03l1.559-5.818  c0.049-0.181,0.225-0.293,0.392-0.248l6.668,1.793c0.158,0.042,0.252,0.21,0.221,0.382l0.012-0.045  C18.703,9.762,18.605,9.577,18.438,9.533z"></path><path fill="#FFC107" d="M15.059,13.128c0.064,0.177-0.017,0.369-0.179,0.429l-7.036,2.561c-0.163,0.059-0.348-0.037-0.413-0.213  l-2.076-5.703c-0.064-0.177,0.016-0.369,0.179-0.428l7.036-2.561c0.163-0.059,0.349,0.037,0.413,0.213L15.059,13.128z"></path><path opacity="0.2" fill="#FFFFFF" enable-background="new    " d="M5.382,10.273c-0.064-0.176,0.016-0.369,0.179-0.428l7.036-2.561  c0.161-0.059,0.344,0.035,0.41,0.208l-0.024-0.066c-0.064-0.176-0.25-0.272-0.413-0.213L5.535,9.773  c-0.163,0.059-0.243,0.252-0.179,0.428l2.076,5.703c0.001,0.002,0.002,0.003,0.003,0.005L5.382,10.273z"></path><path fill="#4285F4" d="M17.152,17.235c0,0.188-0.154,0.341-0.341,0.341H7.189c-0.187,0-0.341-0.154-0.341-0.341V9.962  c0-0.187,0.153-0.341,0.341-0.341h9.621c0.188,0,0.341,0.153,0.341,0.341V17.235z"></path><path fill="#FFFFFF" d="M15.314,12.5h-2.879v-0.758h2.879c0.084,0,0.151,0.068,0.151,0.151v0.455  C15.466,12.432,15.398,12.5,15.314,12.5z M15.314,15.379h-2.879v-0.758h2.879c0.084,0,0.151,0.068,0.151,0.151v0.455  C15.466,15.311,15.398,15.379,15.314,15.379z M15.769,13.939h-3.333v-0.758h3.333c0.084,0,0.151,0.068,0.151,0.151v0.454  C15.92,13.871,15.852,13.939,15.769,13.939z"></path><path opacity="0.2" fill="#1A237E" enable-background="new    " d="M16.81,17.5H7.189c-0.187,0-0.341-0.153-0.341-0.341v0.076  c0,0.188,0.153,0.341,0.341,0.341h9.621c0.188,0,0.341-0.153,0.341-0.341v-0.076C17.152,17.346,16.998,17.5,16.81,17.5z"></path><path opacity="0.2" fill="#FFFFFF" enable-background="new    " d="M7.189,9.697h9.621c0.188,0,0.341,0.153,0.341,0.341V9.962  c0-0.187-0.154-0.341-0.341-0.341H7.189c-0.187,0-0.341,0.153-0.341,0.341v0.076C6.848,9.85,7.002,9.697,7.189,9.697z"></path><path fill="#FFFFFF" d="M9.86,13.258v0.683h0.98c-0.081,0.416-0.447,0.718-0.98,0.718c-0.595,0-1.078-0.503-1.078-1.099  c0-0.595,0.483-1.099,1.078-1.099c0.268,0,0.508,0.092,0.697,0.273v0l0.519-0.519c-0.315-0.294-0.726-0.474-1.216-0.474  c-1.004,0-1.818,0.814-1.818,1.818c0,1.004,0.814,1.818,1.818,1.818c1.05,0,1.741-0.738,1.741-1.777  c0-0.119-0.011-0.234-0.029-0.344H9.86z"></path><path fill="#1A237E" d="M9.879,13.941v0.076h0.962c0.007-0.025,0.013-0.05,0.018-0.076H9.879z"></path><path fill="#1A237E" d="M9.879,15.379c-0.991,0-1.797-0.794-1.817-1.78c0,0.013-0.001,0.025-0.001,0.038  c0,1.004,0.814,1.818,1.818,1.818c1.05,0,1.741-0.738,1.741-1.777c0-0.008-0.001-0.016-0.001-0.024  C11.596,14.665,10.911,15.379,9.879,15.379z M10.576,12.735c-0.189-0.18-0.43-0.273-0.698-0.273c-0.595,0-1.078,0.503-1.078,1.099  c0,0.013,0.001,0.025,0.002,0.038c0.02-0.578,0.493-1.061,1.076-1.061c0.268,0,0.508,0.092,0.698,0.273v0l0.557-0.557  c-0.013-0.012-0.027-0.023-0.041-0.035L10.576,12.735L10.576,12.735z"></path><path opacity="0.2" fill="#1A237E" enable-background="new    " d="M15.466,12.424v-0.076c0,0.084-0.068,0.151-0.151,0.151h-2.879  v0.076h2.879C15.398,12.576,15.466,12.508,15.466,12.424z M15.314,15.379h-2.879v0.076h2.879c0.084,0,0.151-0.068,0.151-0.151  v-0.076C15.466,15.311,15.398,15.379,15.314,15.379z M15.769,13.939h-3.333v0.076h3.333c0.084,0,0.151-0.068,0.151-0.152v-0.076  C15.92,13.871,15.852,13.939,15.769,13.939z"></path><radialGradient id="SVGID_1_I" cx="-263.0203" cy="401.3472" r="1" gradientTransform="matrix(12.9665 0 0 -12.9665 3418.791 5211.6187)" gradientUnits="userSpaceOnUse"><stop offset="0" style="stop-color: rgb(255, 255, 255); stop-opacity: 0.1;"></stop><stop offset="1" style="stop-color: rgb(255, 255, 255); stop-opacity: 0;"></stop></radialGradient><path fill="url(#SVGID_1_I)" d="M18.438,9.533L15.94,8.861V7.004c0-0.186-0.153-0.338-0.34-0.338H8.401  c-0.187,0-0.34,0.152-0.34,0.338v1.849L5.535,9.773c-0.163,0.059-0.243,0.252-0.179,0.428l1.493,4.102v2.932  c0,0.187,0.153,0.341,0.341,0.341h9.621c0.188,0,0.341-0.154,0.341-0.341v-1.683l1.503-5.608  C18.703,9.762,18.606,9.577,18.438,9.533z"></path></svg>