<svg height="28" width="28" xmlns="http://www.w3.org/2000/svg" viewBox="0 0 32 32" enable-background="new 0 0 32 32" xml:space="preserve"><radialGradient id="SVGID_1_" cx="-246.536" cy="264.8975" r="1" gradientTransform="matrix(1.941947e-15 -31.7144 -29.4969 -1.806164e-15 7822.1538 -7784.2769)" gradientUnits="userSpaceOnUse"><stop offset="0" style="stop-color: rgb(255, 221, 85);"></stop><stop offset="0.1" style="stop-color: rgb(255, 221, 85);"></stop><stop offset="0.5" style="stop-color: rgb(255, 84, 62);"></stop><stop offset="1" style="stop-color: rgb(200, 55, 171);"></stop></radialGradient><circle fill="url(#SVGID_1_)" cx="16" cy="16" r="16"></circle><radialGradient id="SVGID_2_" cx="-219.16" cy="276.2076" r="1" gradientTransform="matrix(2.7825 13.9007 57.2992 -11.4697 -15222.0215 6216.8076)" gradientUnits="userSpaceOnUse"><stop offset="0" style="stop-color: rgb(55, 113, 200);"></stop><stop offset="0.128" style="stop-color: rgb(55, 113, 200);"></stop><stop offset="1" style="stop-color: rgb(102, 0, 255); stop-opacity: 0;"></stop></radialGradient><circle id="circle2" fill="url(#SVGID_2_)" cx="16" cy="16" r="16"></circle><path fill="#FFFFFF" d="M16.001,6c-2.716,0-3.057,0.012-4.123,0.06c-1.065,0.049-1.791,0.217-2.427,0.465 C8.793,6.78,8.235,7.122,7.679,7.678C7.123,8.234,6.781,8.792,6.525,9.449c-0.248,0.636-0.417,1.363-0.465,2.427 C6.012,12.943,6,13.284,6,16s0.012,3.056,0.06,4.122c0.049,1.065,0.217,1.791,0.465,2.427c0.256,0.658,0.597,1.216,1.153,1.771 c0.556,0.556,1.114,0.899,1.771,1.154c0.636,0.247,1.363,0.416,2.428,0.465C12.943,25.988,13.284,26,16,26 c2.716,0,3.056-0.012,4.123-0.06c1.065-0.049,1.792-0.217,2.428-0.465c0.657-0.255,1.215-0.598,1.77-1.154 c0.556-0.556,0.898-1.114,1.154-1.771c0.246-0.636,0.415-1.363,0.465-2.427C25.987,19.056,26,18.716,26,16s-0.012-3.057-0.06-4.123 c-0.05-1.065-0.219-1.791-0.465-2.427c-0.256-0.658-0.598-1.216-1.154-1.771c-0.556-0.556-1.113-0.898-1.771-1.153 c-0.638-0.247-1.365-0.416-2.429-0.465C19.054,6.012,18.714,6,15.998,6H16.001z M15.104,7.802c0.266,0,0.563,0,0.897,0 c2.67,0,2.987,0.01,4.041,0.057c0.975,0.045,1.504,0.207,1.857,0.344c0.467,0.181,0.799,0.398,1.149,0.748 c0.35,0.35,0.567,0.683,0.748,1.15c0.137,0.352,0.3,0.881,0.344,1.856c0.048,1.054,0.058,1.371,0.058,4.04 c0,2.669-0.01,2.985-0.058,4.04c-0.045,0.975-0.208,1.504-0.344,1.856c-0.181,0.467-0.398,0.799-0.748,1.149 c-0.35,0.35-0.682,0.567-1.149,0.748c-0.352,0.138-0.882,0.3-1.857,0.345c-1.054,0.048-1.371,0.058-4.041,0.058 c-2.67,0-2.987-0.01-4.041-0.058c-0.975-0.045-1.504-0.208-1.857-0.345c-0.467-0.181-0.8-0.398-1.15-0.748 c-0.35-0.35-0.567-0.683-0.748-1.149c-0.137-0.352-0.3-0.881-0.344-1.856c-0.048-1.054-0.058-1.371-0.058-4.041 s0.01-2.985,0.058-4.04c0.045-0.975,0.207-1.504,0.344-1.857c0.181-0.467,0.398-0.8,0.748-1.15c0.35-0.35,0.683-0.567,1.15-0.748 c0.352-0.137,0.882-0.3,1.857-0.345c0.922-0.042,1.28-0.054,3.144-0.056V7.802z M21.339,9.462c-0.662,0-1.2,0.537-1.2,1.2 c0,0.663,0.538,1.2,1.2,1.2c0.663,0,1.2-0.537,1.2-1.2C22.539,10,22.001,9.462,21.339,9.462L21.339,9.462z M16.001,10.865 c-2.836,0-5.135,2.299-5.135,5.135s2.299,5.134,5.135,5.134c2.836,0,5.135-2.298,5.135-5.134S18.837,10.865,16.001,10.865 L16.001,10.865z M16.001,12.667c1.841,0,3.333,1.492,3.333,3.333c0,1.841-1.493,3.333-3.333,3.333c-1.841,0-3.333-1.493-3.333-3.333 C12.667,14.159,14.16,12.667,16.001,12.667L16.001,12.667z"></path></svg>